<?xml version="1.0" encoding="UTF-8" ?>
<!DOCTYPE svg PUBLIC "-//W3C//DTD SVG 1.1//EN" "http://www.w3.org/Graphics/SVG/1.1/DTD/svg11.dtd">
<svg width="1373pt" height="179pt" viewBox="0 0 1373 179" version="1.1" xmlns="http://www.w3.org/2000/svg">
<g id="#ef6910ff">
<path fill="#ef6910" opacity="1.00" d=" M 254.64 0.00 L 379.58 0.00 C 379.63 10.45 379.45 20.91 379.67 31.36 C 372.45 31.24 365.22 31.74 358.00 31.48 C 323.56 31.44 289.12 31.58 254.68 31.41 C 254.63 20.94 254.61 10.47 254.64 0.00 Z" />
<path fill="#ef6910" opacity="1.00" d=" M 292.09 38.99 C 308.74 38.94 325.38 38.97 342.03 38.97 C 342.05 73.98 342.03 109.00 342.04 144.01 C 325.39 143.99 308.74 144.00 292.09 144.00 C 292.15 109.00 292.15 73.99 292.09 38.99 Z" />
</g>
<g id="#000000ff">
<path fill="#000000" opacity="1.00" d=" M 395.13 0.00 L 438.33 0.00 C 438.34 48.00 438.45 96.01 438.27 144.01 C 423.88 144.07 409.49 144.07 395.10 144.01 C 395.18 96.00 395.13 48.00 395.13 0.00 Z" />
<path fill="#000000" opacity="1.00" d=" M 1188.13 0.00 L 1231.33 0.00 C 1231.33 39.32 1231.46 78.64 1231.26 117.95 C 1237.75 117.68 1244.24 118.32 1250.74 118.04 C 1250.67 126.68 1250.66 135.33 1250.75 143.97 C 1240.81 144.02 1230.87 144.03 1220.94 144.22 C 1217.02 144.28 1212.69 144.11 1209.61 141.36 C 1205.30 137.69 1201.86 133.13 1197.64 129.36 C 1194.35 126.07 1190.16 123.18 1188.64 118.59 C 1187.36 113.16 1188.20 107.52 1188.14 102.01 C 1188.15 68.00 1188.15 34.00 1188.13 0.00 Z" />
<path fill="#000000" opacity="1.00" d=" M 23.99 42.11 C 27.09 39.67 31.24 39.92 34.96 39.81 C 41.69 39.88 48.41 40.19 55.14 40.00 C 55.27 48.65 55.28 57.30 55.13 65.95 C 51.42 65.98 47.71 66.06 44.00 66.10 C 43.99 84.05 44.01 101.99 43.99 119.94 C 47.70 119.97 51.41 120.04 55.12 120.07 C 55.29 128.05 55.28 136.03 55.12 144.01 C 46.72 143.64 38.30 144.58 29.91 143.96 C 24.19 143.75 20.58 138.80 16.90 135.10 C 11.56 129.13 5.28 124.09 0.00 118.07 L 0.00 66.03 C 4.34 61.03 9.49 56.83 14.01 52.01 C 17.32 48.70 20.22 44.93 23.99 42.11 Z" />
<path fill="#000000" opacity="1.00" d=" M 61.98 39.99 C 69.34 40.09 76.69 39.94 84.05 39.89 C 86.24 39.94 88.51 39.82 90.63 40.52 C 93.23 41.68 95.16 43.89 97.12 45.89 C 101.92 51.09 107.04 55.98 112.12 60.91 C 113.72 62.57 115.49 64.23 116.31 66.44 C 117.00 68.89 116.88 71.46 116.91 73.98 C 116.68 83.32 116.81 92.66 116.78 102.00 C 116.75 106.65 117.16 111.32 116.68 115.97 C 116.39 118.93 114.11 121.11 112.13 123.11 C 106.44 128.43 101.09 134.10 95.62 139.65 C 94.10 141.10 92.57 142.68 90.58 143.47 C 88.47 144.15 86.23 144.07 84.05 144.11 C 76.70 144.06 69.35 143.91 62.00 144.01 C 61.99 136.03 62.01 128.05 61.98 120.08 C 65.57 119.98 69.17 119.93 72.77 119.90 C 72.62 101.98 72.62 84.06 72.77 66.14 C 69.17 66.09 65.57 66.04 61.97 65.95 C 62.02 57.30 62.00 48.64 61.98 39.99 Z" />
<path fill="#000000" opacity="1.00" d=" M 136.10 40.02 C 150.49 39.98 164.88 39.99 179.27 40.01 C 179.42 74.67 179.41 109.33 179.27 143.99 C 164.88 144.01 150.49 144.02 136.10 143.98 C 136.17 109.33 136.17 74.67 136.10 40.02 Z" />
<path fill="#000000" opacity="1.00" d=" M 200.61 40.68 C 203.61 39.62 206.88 39.97 210.01 39.90 C 214.98 40.07 219.97 39.65 224.94 40.12 C 227.72 40.41 229.54 42.85 231.29 44.78 C 234.94 49.43 238.79 53.92 242.82 58.24 C 245.30 60.94 248.07 63.97 247.99 67.91 C 248.26 75.67 247.75 83.44 247.97 91.21 C 233.55 91.34 219.14 91.35 204.73 91.20 C 204.59 82.82 204.50 74.45 204.72 66.07 C 198.53 66.36 192.34 65.70 186.15 66.02 C 186.23 62.49 185.85 58.88 186.69 55.42 C 188.06 52.16 190.95 49.92 193.31 47.41 C 195.71 45.14 197.70 42.34 200.61 40.68 Z" />
<path fill="#000000" opacity="1.00" d=" M 456.53 41.63 C 458.90 39.76 462.09 39.99 464.94 39.88 C 469.63 39.94 474.33 39.71 479.01 40.08 C 482.36 40.21 484.68 42.92 486.88 45.11 C 492.51 51.16 498.51 56.85 504.39 62.65 C 506.42 64.54 507.73 67.13 507.65 69.95 C 507.60 94.60 507.43 119.27 507.71 143.93 C 493.19 144.14 478.67 144.05 464.15 143.99 C 464.25 117.99 464.26 91.99 464.16 66.00 C 457.80 66.30 451.45 65.79 445.11 66.03 C 445.08 62.09 444.76 58.12 445.37 54.20 C 445.79 52.04 447.44 50.45 448.86 48.88 C 451.33 46.38 453.71 43.76 456.53 41.63 Z" />
<path fill="#000000" opacity="1.00" d=" M 545.90 45.90 C 547.86 43.90 549.78 41.70 552.38 40.52 C 554.49 39.82 556.75 39.94 558.95 39.89 C 566.36 39.94 573.77 40.08 581.18 40.00 C 581.25 48.67 581.25 57.32 581.18 65.98 C 577.45 66.02 573.73 66.03 570.00 66.08 C 569.99 84.04 570.01 102.00 569.99 119.96 C 573.71 120.00 577.44 120.01 581.17 120.05 C 581.25 128.04 581.26 136.03 581.16 144.02 C 573.41 143.94 565.66 144.15 557.92 144.14 C 555.60 144.06 553.09 144.12 551.09 142.78 C 549.13 141.49 547.52 139.77 545.90 138.11 C 541.16 133.18 536.34 128.32 531.34 123.66 C 529.69 122.03 527.92 120.43 526.91 118.31 C 526.03 116.00 526.20 113.47 526.15 111.05 C 526.39 101.70 526.25 92.35 526.30 83.00 C 526.35 78.02 525.88 73.03 526.39 68.07 C 526.64 65.10 528.94 62.94 530.89 60.93 C 535.97 56.00 541.09 51.10 545.90 45.90 Z" />
<path fill="#000000" opacity="1.00" d=" M 587.98 39.99 C 595.68 40.10 603.38 39.91 611.09 39.90 C 613.40 39.98 615.94 39.84 617.95 41.21 C 620.09 42.63 621.83 44.55 623.60 46.40 C 628.26 51.42 633.21 56.14 638.12 60.91 C 639.72 62.57 641.48 64.23 642.31 66.44 C 643.07 69.22 642.88 72.15 642.89 75.00 C 642.67 83.66 642.82 92.33 642.77 101.00 C 642.71 105.99 643.18 110.99 642.68 115.96 C 642.38 118.93 640.11 121.11 638.13 123.11 C 632.44 128.43 627.09 134.10 621.62 139.65 C 620.09 141.10 618.57 142.68 616.58 143.48 C 614.47 144.18 612.23 144.10 610.05 144.15 C 602.70 144.12 595.35 143.95 588.00 144.03 C 587.98 136.04 588.01 128.06 587.98 120.07 C 591.57 119.98 595.17 119.93 598.77 119.90 C 598.62 101.98 598.62 84.06 598.77 66.14 C 595.17 66.09 591.56 66.04 587.97 65.95 C 588.02 57.30 587.99 48.64 587.98 39.99 Z" />
<path fill="#000000" opacity="1.00" d=" M 681.39 45.38 C 683.74 42.98 686.30 40.15 689.92 39.98 C 694.84 39.64 699.78 40.13 704.71 40.13 C 704.47 66.76 704.53 93.40 704.68 120.03 C 711.05 119.71 717.42 120.28 723.80 120.03 C 723.71 123.54 724.07 127.12 723.30 130.59 C 722.32 133.26 720.07 135.16 718.16 137.16 C 715.75 139.38 713.55 141.97 710.58 143.45 C 707.81 144.32 704.85 144.09 701.99 144.16 C 697.67 144.08 693.33 144.38 689.04 143.86 C 686.28 143.56 684.28 141.44 682.39 139.63 C 677.13 134.21 671.87 128.79 666.34 123.66 C 663.91 121.35 661.15 118.70 661.26 115.06 C 661.13 101.71 661.49 88.35 661.18 74.99 C 661.18 72.15 660.99 69.23 661.73 66.46 C 662.63 64.02 664.63 62.24 666.40 60.42 C 671.50 55.52 676.58 50.58 681.39 45.38 Z" />
<path fill="#000000" opacity="1.00" d=" M 711.23 40.03 C 721.87 40.15 732.51 39.78 743.15 39.91 C 748.70 39.81 752.65 44.15 756.08 47.93 C 759.66 52.00 763.57 55.77 767.50 59.51 C 770.17 62.17 773.15 65.10 773.55 69.07 C 774.20 75.02 773.52 81.02 773.62 87.00 C 773.76 106.37 773.43 125.73 773.83 145.10 C 773.80 148.39 773.74 151.99 771.69 154.76 C 769.35 158.04 766.21 160.62 763.39 163.46 C 758.05 168.59 753.35 174.39 747.53 179.00 L 690.61 179.00 C 687.17 175.25 683.29 171.92 680.08 167.97 C 677.21 164.68 677.87 160.01 677.43 155.98 C 695.04 156.01 712.65 156.01 730.27 156.00 C 730.41 126.01 730.42 96.03 730.26 66.05 C 723.91 66.26 717.57 65.80 711.23 65.99 C 711.29 57.34 711.29 48.69 711.23 40.03 Z" />
<path fill="#000000" opacity="1.00" d=" M 811.90 45.90 C 813.85 43.90 815.78 41.70 818.38 40.52 C 820.49 39.82 822.75 39.94 824.95 39.89 C 832.36 39.94 839.77 40.08 847.18 40.00 C 847.25 48.66 847.24 57.32 847.18 65.98 C 843.45 66.02 839.72 66.03 836.00 66.08 C 835.99 84.04 836.01 102.00 835.99 119.96 C 839.71 119.99 843.44 120.01 847.17 120.05 C 847.25 128.04 847.26 136.03 847.16 144.02 C 839.41 143.94 831.66 144.15 823.92 144.14 C 821.60 144.06 819.08 144.13 817.09 142.79 C 815.33 141.63 813.86 140.11 812.39 138.63 C 807.65 133.70 802.86 128.81 797.85 124.15 C 796.03 122.37 794.04 120.64 792.91 118.31 C 792.03 116.00 792.20 113.47 792.16 111.05 C 792.39 101.70 792.25 92.35 792.30 83.00 C 792.35 78.02 791.88 73.03 792.40 68.07 C 792.64 65.09 794.94 62.94 796.90 60.92 C 801.97 55.99 807.09 51.10 811.90 45.90 Z" />
<path fill="#000000" opacity="1.00" d=" M 853.98 39.99 C 861.68 40.10 869.38 39.91 877.09 39.90 C 879.39 39.98 881.94 39.83 883.94 41.21 C 886.09 42.62 887.83 44.55 889.60 46.40 C 894.25 51.42 899.21 56.14 904.12 60.91 C 905.72 62.57 907.48 64.23 908.31 66.45 C 909.07 69.22 908.87 72.15 908.89 75.00 C 908.67 83.66 908.82 92.33 908.77 101.00 C 908.71 105.99 909.18 110.99 908.68 115.97 C 908.38 118.93 906.11 121.11 904.13 123.11 C 898.44 128.43 893.09 134.10 887.63 139.64 C 886.09 141.10 884.57 142.69 882.58 143.49 C 880.47 144.18 878.22 144.11 876.05 144.15 C 868.70 144.12 861.35 143.95 854.00 144.03 C 853.98 136.05 854.01 128.06 853.98 120.07 C 857.57 119.98 861.17 119.93 864.78 119.90 C 864.62 101.98 864.62 84.05 864.77 66.14 C 861.16 66.09 857.56 66.04 853.97 65.95 C 854.01 57.30 853.99 48.65 853.98 39.99 Z" />
<path fill="#000000" opacity="1.00" d=" M 928.10 40.02 C 942.66 39.99 957.23 39.96 971.80 40.04 C 971.66 74.68 971.67 109.33 971.79 143.97 C 957.23 144.10 942.66 144.06 928.10 144.00 C 928.17 109.34 928.17 74.68 928.10 40.02 Z" />
<path fill="#000000" opacity="1.00" d=" M 990.43 42.50 C 994.28 38.68 1000.14 40.23 1005.00 39.89 C 1009.83 40.28 1015.72 38.65 1019.60 42.40 C 1024.57 47.09 1028.94 52.39 1034.06 56.94 C 1037.21 59.86 1041.11 63.11 1040.72 67.90 C 1040.65 93.24 1040.54 118.60 1040.75 143.95 C 1026.24 144.12 1011.72 144.07 997.21 143.98 C 997.33 117.99 997.34 92.00 997.21 66.01 C 991.05 66.28 984.88 65.80 978.73 66.06 C 978.93 61.37 977.48 55.75 981.14 52.01 C 984.08 48.70 987.15 45.48 990.43 42.50 Z" />
<path fill="#000000" opacity="1.00" d=" M 1077.07 41.22 C 1079.05 39.82 1081.60 40.00 1083.92 39.89 C 1101.64 40.06 1119.36 40.07 1137.09 39.89 C 1139.38 40.00 1141.94 39.82 1143.94 41.23 C 1146.07 42.65 1147.81 44.57 1149.59 46.42 C 1154.25 51.42 1159.18 56.17 1164.10 60.92 C 1166.05 62.94 1168.35 65.09 1168.61 68.07 C 1169.11 73.03 1168.64 78.02 1168.70 83.00 C 1168.77 103.33 1168.62 123.65 1168.79 143.98 C 1154.62 144.06 1140.45 144.14 1126.29 143.93 C 1126.52 117.97 1126.48 92.00 1126.31 66.04 C 1105.89 66.03 1085.46 66.07 1065.03 66.02 C 1064.97 62.36 1064.69 58.68 1065.15 55.03 C 1065.42 52.54 1067.30 50.68 1068.88 48.89 C 1071.48 46.21 1073.97 43.35 1077.07 41.22 Z" />
<path fill="#000000" opacity="1.00" d=" M 1274.78 48.78 C 1278.05 45.40 1281.19 41.18 1286.08 40.17 C 1291.03 39.48 1296.05 39.98 1301.04 40.04 C 1301.01 52.36 1301.09 64.68 1301.01 77.00 C 1314.01 76.93 1327.01 77.19 1340.01 76.82 C 1343.39 76.86 1346.94 76.65 1350.12 78.03 C 1353.52 79.72 1355.97 82.73 1358.57 85.42 C 1363.03 90.37 1368.00 94.83 1373.00 99.23 L 1373.00 99.97 C 1372.91 105.66 1372.92 111.37 1372.34 117.04 C 1372.02 120.96 1369.09 123.86 1366.47 126.48 C 1362.85 129.86 1359.23 133.25 1355.94 136.94 C 1352.99 140.13 1349.65 143.65 1345.07 144.06 C 1339.81 144.49 1334.54 143.95 1329.29 143.88 C 1329.53 130.93 1329.46 117.98 1329.32 105.03 C 1317.21 105.12 1305.10 104.86 1292.99 105.21 C 1289.12 105.20 1284.94 105.44 1281.49 103.40 C 1277.61 101.08 1274.78 97.47 1271.54 94.40 C 1268.71 91.59 1265.44 89.23 1262.91 86.14 C 1259.96 82.45 1260.05 77.45 1259.99 72.98 C 1260.09 68.61 1260.01 63.63 1263.18 60.20 C 1266.78 56.14 1271.17 52.85 1274.78 48.78 Z" />
<path fill="#000000" opacity="1.00" d=" M 1307.86 40.01 C 1320.92 39.94 1333.99 40.11 1347.05 39.88 C 1349.89 39.97 1353.15 39.67 1355.49 41.65 C 1358.45 43.95 1360.88 46.84 1363.60 49.41 C 1365.58 51.46 1367.86 53.43 1368.91 56.16 C 1369.53 59.74 1369.20 63.41 1369.20 67.02 C 1355.92 67.02 1342.64 67.16 1329.36 66.92 C 1329.34 64.28 1329.31 61.65 1329.27 59.01 C 1322.13 59.14 1315.00 58.85 1307.87 59.02 C 1307.73 52.68 1307.73 46.34 1307.86 40.01 Z" />
<path fill="#000000" opacity="1.00" d=" M 1067.81 88.81 C 1070.19 86.51 1072.50 83.49 1076.06 83.15 C 1081.01 82.58 1086.02 83.07 1091.00 83.00 C 1100.59 82.99 1110.18 82.98 1119.77 83.04 C 1119.71 89.03 1119.72 95.01 1119.76 100.99 C 1112.27 100.87 1104.78 101.21 1097.29 101.09 C 1097.41 107.37 1097.41 113.65 1097.29 119.94 C 1104.81 119.84 1112.32 120.19 1119.84 120.01 C 1119.76 123.54 1120.14 127.13 1119.36 130.60 C 1118.23 133.48 1115.76 135.52 1113.68 137.69 C 1111.43 139.75 1109.37 142.15 1106.58 143.47 C 1102.49 144.61 1098.17 144.03 1094.00 144.07 C 1088.00 143.82 1081.99 144.51 1076.02 143.92 C 1072.98 143.64 1070.77 141.31 1068.72 139.30 C 1066.10 136.54 1063.29 133.98 1060.48 131.44 C 1058.63 129.68 1056.53 127.71 1056.41 124.99 C 1056.00 119.66 1056.47 114.31 1056.25 108.98 C 1056.34 105.41 1055.74 101.25 1058.37 98.38 C 1061.30 94.99 1064.78 92.12 1067.81 88.81 Z" />
<path fill="#000000" opacity="1.00" d=" M 1260.04 114.26 C 1274.56 114.42 1289.09 114.39 1303.61 114.28 C 1303.69 117.86 1303.69 121.46 1303.70 125.05 C 1310.05 124.71 1316.41 125.26 1322.77 125.01 C 1322.71 131.33 1322.71 137.65 1322.77 143.98 C 1310.16 144.14 1297.54 143.92 1284.93 144.16 C 1282.77 144.08 1280.54 144.24 1278.49 143.51 C 1274.46 140.89 1272.09 136.57 1268.98 133.05 C 1266.10 129.65 1262.57 126.63 1260.78 122.47 C 1260.06 119.79 1260.17 117.00 1260.04 114.26 Z" />
</g>
</svg>
